<?xml version="1.0" encoding="UTF-8" standalone="no"?><svg xmlns="http://www.w3.org/2000/svg" xmlns:xlink="http://www.w3.org/1999/xlink" clip-rule="evenodd" stroke-miterlimit="10" viewBox="0 0 165 151"><desc>SVG generated by Keynote</desc><defs><pattern id="57EA5B4B-B6DE-4520-A1F8-C5EE77F8779E" patternUnits="userSpaceOnUse" width="256" height="256" viewBox="0 0 256 256"><image xlink:href="../../63FDE3F6-E1E4-4BEC-8BAE-FAEF5D63F8B5/assets/9F2955F7E42211BA7B051F7D1B25CF9F.png" width="256.00" height="256.00"></image></pattern></defs><g transform="matrix(1.00, 0.00, -0.00, -1.00, 0.0, 151.0)"><g><clipPath id="clip0x6100006b3c20"><path d="M 1.0 150.0 L 164.0 150.0 L 164.0 2.0 L 1.0 2.0 Z M 1.0 150.0 "></path></clipPath><g clip-path="url(#clip0x6100006b3c20)"><path d="M 1.0 2.0 L 164.0 2.0 L 164.0 150.0 L 1.0 150.0 Z M 1.0 2.0 " fill="url(#57EA5B4B-B6DE-4520-A1F8-C5EE77F8779E)"></path></g></g><g><clipPath id="clip0x6100006b4280"><path d="M -1.5 1.8 L 166.0 1.8 L 166.0 150.0 L -1.5 150.0 Z M -1.5 1.8 "></path></clipPath><g clip-path="url(#clip0x6100006b4280)"><text xml:space="preserve" font-family="Helvetica-Light,Helvetica" font-size="26.0" fill="#FEFFFF" transform="matrix(1.00, 0.00, -0.00, -1.00, 23.5, 66.0)">Y</text><text xml:space="preserve" font-family="Helvetica-Light,Helvetica" font-size="26.0" fill="#FEFFFF" transform="matrix(1.00, 0.00, -0.00, -1.00, 37.0, 66.0)">o</text><text xml:space="preserve" font-family="Helvetica-Light,Helvetica" font-size="26.0" fill="#FEFFFF" transform="matrix(1.00, 0.00, -0.00, -1.00, 51.4, 66.0)">u</text><text xml:space="preserve" font-family="Helvetica-Light,Helvetica" font-size="26.0" fill="#FEFFFF" transform="matrix(1.00, 0.00, -0.00, -1.00, 65.9, 66.0)">r</text><text xml:space="preserve" font-family="Helvetica-Light,Helvetica" font-size="26.0" fill="#FEFFFF" transform="matrix(1.00, 0.00, -0.00, -1.00, 74.5, 66.0)"> </text><text xml:space="preserve" font-family="Helvetica-Light,Helvetica" font-size="26.0" fill="#FEFFFF" transform="matrix(1.00, 0.00, -0.00, -1.00, 81.8, 66.0)">c</text><text xml:space="preserve" font-family="Helvetica-Light,Helvetica" font-size="26.0" fill="#FEFFFF" transform="matrix(1.00, 0.00, -0.00, -1.00, 96.2, 66.0)">o</text><text xml:space="preserve" font-family="Helvetica-Light,Helvetica" font-size="26.0" fill="#FEFFFF" transform="matrix(1.00, 0.00, -0.00, -1.00, 110.7, 66.0)">d</text><text xml:space="preserve" font-family="Helvetica-Light,Helvetica" font-size="26.0" fill="#FEFFFF" transform="matrix(1.00, 0.00, -0.00, -1.00, 126.6, 66.0)">e</text></g></g></g></svg>