<?xml version="1.0" encoding="UTF-8" standalone="no"?><svg xmlns="http://www.w3.org/2000/svg" xmlns:xlink="http://www.w3.org/1999/xlink" clip-rule="evenodd" stroke-miterlimit="10" viewBox="0 0 1024 768"><desc>SVG generated by Keynote</desc><defs><pattern id="D29A6DA6-AA63-4C80-9CA5-BDD24D737C14" patternUnits="userSpaceOnUse" width="256" height="256" viewBox="0 0 256 256"><image xlink:href="../../63FDE3F6-E1E4-4BEC-8BAE-FAEF5D63F8B5/assets/9F2955F7E42211BA7B051F7D1B25CF9F.png" width="256.00" height="256.00"></image></pattern><pattern id="D3B7153E-4793-4ED8-AE12-3A2847BA9BA7" patternUnits="userSpaceOnUse" width="256" height="256" viewBox="0 0 256 256"><image xlink:href="../../63FDE3F6-E1E4-4BEC-8BAE-FAEF5D63F8B5/assets/5C5A0FC7E3B4417A6CD6A9787AAA0F4B.png" width="256.00" height="256.00"></image></pattern></defs><g transform="matrix(1.00, 0.00, -0.00, -1.00, 0.0, 768.0)"><path d="M 0.0 768.0 L 1024.0 768.0 L 1024.0 0.0 L 0.0 0.0 Z M 0.0 768.0 " fill="#000000"></path><text xml:space="preserve" font-family="Helvetica-Light,Helvetica" font-size="80.0" fill="#FEFFFF" transform="matrix(1.00, 0.00, -0.00, -1.00, 254.9, 633.4)">“</text><text xml:space="preserve" font-family="Helvetica-Light,Helvetica" font-size="80.0" fill="#FEFFFF" transform="matrix(1.00, 0.00, -0.00, -1.00, 286.0, 633.4)">T</text><text xml:space="preserve" font-family="Helvetica-Light,Helvetica" font-size="80.0" fill="#FEFFFF" transform="matrix(1.00, 0.00, -0.00, -1.00, 330.5, 633.4)">h</text><text xml:space="preserve" font-family="Helvetica-Light,Helvetica" font-size="80.0" fill="#FEFFFF" transform="matrix(1.00, 0.00, -0.00, -1.00, 375.0, 633.4)">e</text><text xml:space="preserve" font-family="Helvetica-Light,Helvetica" font-size="80.0" fill="#FEFFFF" transform="matrix(1.00, 0.00, -0.00, -1.00, 419.4, 633.4)"> </text><text xml:space="preserve" font-family="Helvetica-Light,Helvetica" font-size="80.0" fill="#FEFFFF" transform="matrix(1.00, 0.00, -0.00, -1.00, 441.7, 633.4)">P</text><text xml:space="preserve" font-family="Helvetica-Light,Helvetica" font-size="80.0" fill="#FEFFFF" transform="matrix(1.00, 0.00, -0.00, -1.00, 490.6, 633.4)">r</text><text xml:space="preserve" font-family="Helvetica-Light,Helvetica" font-size="80.0" fill="#FEFFFF" transform="matrix(1.00, 0.00, -0.00, -1.00, 515.8, 633.4)">o</text><text xml:space="preserve" font-family="Helvetica-Light,Helvetica" font-size="80.0" fill="#FEFFFF" transform="matrix(1.00, 0.00, -0.00, -1.00, 560.2, 633.4)">b</text><text xml:space="preserve" font-family="Helvetica-Light,Helvetica" font-size="80.0" fill="#FEFFFF" transform="matrix(1.00, 0.00, -0.00, -1.00, 609.1, 633.4)">l</text><text xml:space="preserve" font-family="Helvetica-Light,Helvetica" font-size="80.0" fill="#FEFFFF" transform="matrix(1.00, 0.00, -0.00, -1.00, 626.9, 633.4)">e</text><text xml:space="preserve" font-family="Helvetica-Light,Helvetica" font-size="80.0" fill="#FEFFFF" transform="matrix(1.00, 0.00, -0.00, -1.00, 671.4, 633.4)">m</text><text xml:space="preserve" font-family="Helvetica-Light,Helvetica" font-size="80.0" fill="#FEFFFF" transform="matrix(1.00, 0.00, -0.00, -1.00, 738.0, 633.4)">”</text><g><clipPath id="clip0x6000008b0140"><path d="M 280.0 245.0 L 443.0 245.0 L 443.0 97.0 L 280.0 97.0 Z M 280.0 245.0 "></path></clipPath><g clip-path="url(#clip0x6000008b0140)"><path d="M 280.0 97.0 L 443.0 97.0 L 443.0 245.0 L 280.0 245.0 Z M 280.0 97.0 " fill="url(#D29A6DA6-AA63-4C80-9CA5-BDD24D737C14)"></path></g></g><g><clipPath id="clip0x6180004a5fa0"><path d="M 277.5 96.8 L 445.0 96.8 L 445.0 245.0 L 277.5 245.0 Z M 277.5 96.8 "></path></clipPath><g clip-path="url(#clip0x6180004a5fa0)"><text xml:space="preserve" font-family="Helvetica-Light,Helvetica" font-size="26.0" fill="#FEFFFF" transform="matrix(1.00, 0.00, -0.00, -1.00, 302.5, 161.0)">Y</text><text xml:space="preserve" font-family="Helvetica-Light,Helvetica" font-size="26.0" fill="#FEFFFF" transform="matrix(1.00, 0.00, -0.00, -1.00, 316.0, 161.0)">o</text><text xml:space="preserve" font-family="Helvetica-Light,Helvetica" font-size="26.0" fill="#FEFFFF" transform="matrix(1.00, 0.00, -0.00, -1.00, 330.4, 161.0)">u</text><text xml:space="preserve" font-family="Helvetica-Light,Helvetica" font-size="26.0" fill="#FEFFFF" transform="matrix(1.00, 0.00, -0.00, -1.00, 344.9, 161.0)">r</text><text xml:space="preserve" font-family="Helvetica-Light,Helvetica" font-size="26.0" fill="#FEFFFF" transform="matrix(1.00, 0.00, -0.00, -1.00, 353.5, 161.0)"> </text><text xml:space="preserve" font-family="Helvetica-Light,Helvetica" font-size="26.0" fill="#FEFFFF" transform="matrix(1.00, 0.00, -0.00, -1.00, 360.8, 161.0)">c</text><text xml:space="preserve" font-family="Helvetica-Light,Helvetica" font-size="26.0" fill="#FEFFFF" transform="matrix(1.00, 0.00, -0.00, -1.00, 375.2, 161.0)">o</text><text xml:space="preserve" font-family="Helvetica-Light,Helvetica" font-size="26.0" fill="#FEFFFF" transform="matrix(1.00, 0.00, -0.00, -1.00, 389.7, 161.0)">d</text><text xml:space="preserve" font-family="Helvetica-Light,Helvetica" font-size="26.0" fill="#FEFFFF" transform="matrix(1.00, 0.00, -0.00, -1.00, 405.6, 161.0)">e</text></g></g><g><clipPath id="clip0x6180004a98a0"><path d="M 186.0 434.0 L 286.0 434.0 L 286.0 334.0 L 186.0 334.0 Z M 186.0 434.0 "></path></clipPath><g clip-path="url(#clip0x6180004a98a0)"><image xlink:href="../../63FDE3F6-E1E4-4BEC-8BAE-FAEF5D63F8B5/assets/2E46DA311AF3B73A4E9A2E7FFBE936DB.png" width="256.00" height="256.00" transform="matrix(0.50, 0.00, -0.00, -0.50, 186.0, 434.0)"></image></g></g><g><clipPath id="clip0x6180004aa200"><path d="M 183.5 334.0 L 288.5 334.0 L 288.5 434.0 L 183.5 434.0 Z M 183.5 334.0 "></path></clipPath><g clip-path="url(#clip0x6180004aa200)"><text xml:space="preserve" font-family="Helvetica-Light,Helvetica" font-size="26.0" fill="#FEFFFF" transform="matrix(1.00, 0.00, -0.00, -1.00, 195.3, 374.0)">L</text><text xml:space="preserve" font-family="Helvetica-Light,Helvetica" font-size="26.0" fill="#FEFFFF" transform="matrix(1.00, 0.00, -0.00, -1.00, 209.8, 374.0)">i</text><text xml:space="preserve" font-family="Helvetica-Light,Helvetica" font-size="26.0" fill="#FEFFFF" transform="matrix(1.00, 0.00, -0.00, -1.00, 215.6, 374.0)">b</text><text xml:space="preserve" font-family="Helvetica-Light,Helvetica" font-size="26.0" fill="#FEFFFF" transform="matrix(1.00, 0.00, -0.00, -1.00, 231.4, 374.0)">r</text><text xml:space="preserve" font-family="Helvetica-Light,Helvetica" font-size="26.0" fill="#FEFFFF" transform="matrix(1.00, 0.00, -0.00, -1.00, 240.1, 374.0)">a</text><text xml:space="preserve" font-family="Helvetica-Light,Helvetica" font-size="26.0" fill="#FEFFFF" transform="matrix(1.00, 0.00, -0.00, -1.00, 254.6, 374.0)">r</text><text xml:space="preserve" font-family="Helvetica-Light,Helvetica" font-size="26.0" fill="#FEFFFF" transform="matrix(1.00, 0.00, -0.00, -1.00, 263.7, 374.0)">y</text></g></g><g><clipPath id="clip0x6180004a3ea0"><path d="M 399.0 434.0 L 499.0 434.0 L 499.0 334.0 L 399.0 334.0 Z M 399.0 434.0 "></path></clipPath><g clip-path="url(#clip0x6180004a3ea0)"><image xlink:href="../../63FDE3F6-E1E4-4BEC-8BAE-FAEF5D63F8B5/assets/2E46DA311AF3B73A4E9A2E7FFBE936DB.png" width="256.00" height="256.00" transform="matrix(0.50, 0.00, -0.00, -0.50, 399.0, 434.0)"></image></g></g><g><clipPath id="clip0x6080006a4440"><path d="M 396.5 334.0 L 501.5 334.0 L 501.5 434.0 L 396.5 434.0 Z M 396.5 334.0 "></path></clipPath><g clip-path="url(#clip0x6080006a4440)"><text xml:space="preserve" font-family="Helvetica-Light,Helvetica" font-size="26.0" fill="#FEFFFF" transform="matrix(1.00, 0.00, -0.00, -1.00, 408.3, 374.0)">L</text><text xml:space="preserve" font-family="Helvetica-Light,Helvetica" font-size="26.0" fill="#FEFFFF" transform="matrix(1.00, 0.00, -0.00, -1.00, 422.8, 374.0)">i</text><text xml:space="preserve" font-family="Helvetica-Light,Helvetica" font-size="26.0" fill="#FEFFFF" transform="matrix(1.00, 0.00, -0.00, -1.00, 428.6, 374.0)">b</text><text xml:space="preserve" font-family="Helvetica-Light,Helvetica" font-size="26.0" fill="#FEFFFF" transform="matrix(1.00, 0.00, -0.00, -1.00, 444.4, 374.0)">r</text><text xml:space="preserve" font-family="Helvetica-Light,Helvetica" font-size="26.0" fill="#FEFFFF" transform="matrix(1.00, 0.00, -0.00, -1.00, 453.1, 374.0)">a</text><text xml:space="preserve" font-family="Helvetica-Light,Helvetica" font-size="26.0" fill="#FEFFFF" transform="matrix(1.00, 0.00, -0.00, -1.00, 467.6, 374.0)">r</text><text xml:space="preserve" font-family="Helvetica-Light,Helvetica" font-size="26.0" fill="#FEFFFF" transform="matrix(1.00, 0.00, -0.00, -1.00, 476.7, 374.0)">y</text></g></g><g><clipPath id="clip0x6080006a85e0"><path d="M 325.0 597.0 L 425.0 597.0 L 425.0 497.0 L 325.0 497.0 Z M 325.0 597.0 "></path></clipPath><g clip-path="url(#clip0x6080006a85e0)"><image xlink:href="../../63FDE3F6-E1E4-4BEC-8BAE-FAEF5D63F8B5/assets/2E46DA311AF3B73A4E9A2E7FFBE936DB.png" width="256.00" height="256.00" transform="matrix(0.50, 0.00, -0.00, -0.50, 325.0, 597.0)"></image></g></g><g><clipPath id="clip0x6080006ab2e0"><path d="M 322.5 497.0 L 427.5 497.0 L 427.5 597.0 L 322.5 597.0 Z M 322.5 497.0 "></path></clipPath><g clip-path="url(#clip0x6080006ab2e0)"><text xml:space="preserve" font-family="Helvetica-Light,Helvetica" font-size="26.0" fill="#FEFFFF" transform="matrix(1.00, 0.00, -0.00, -1.00, 334.3, 537.0)">L</text><text xml:space="preserve" font-family="Helvetica-Light,Helvetica" font-size="26.0" fill="#FEFFFF" transform="matrix(1.00, 0.00, -0.00, -1.00, 348.8, 537.0)">i</text><text xml:space="preserve" font-family="Helvetica-Light,Helvetica" font-size="26.0" fill="#FEFFFF" transform="matrix(1.00, 0.00, -0.00, -1.00, 354.6, 537.0)">b</text><text xml:space="preserve" font-family="Helvetica-Light,Helvetica" font-size="26.0" fill="#FEFFFF" transform="matrix(1.00, 0.00, -0.00, -1.00, 370.4, 537.0)">r</text><text xml:space="preserve" font-family="Helvetica-Light,Helvetica" font-size="26.0" fill="#FEFFFF" transform="matrix(1.00, 0.00, -0.00, -1.00, 379.1, 537.0)">a</text><text xml:space="preserve" font-family="Helvetica-Light,Helvetica" font-size="26.0" fill="#FEFFFF" transform="matrix(1.00, 0.00, -0.00, -1.00, 393.6, 537.0)">r</text><text xml:space="preserve" font-family="Helvetica-Light,Helvetica" font-size="26.0" fill="#FEFFFF" transform="matrix(1.00, 0.00, -0.00, -1.00, 402.7, 537.0)">y</text></g></g><path d="M 0.0 0.0 L 58.1 0.0 L 59.1 0.0 " fill="none" stroke="#FEFFFE" stroke-width="2.00" transform="matrix(-0.47, -0.88, -0.88, 0.47, 323.9, 494.0)"></path><path d="M 292.1 445.1 L 291.8 434.3 L 300.6 440.5 Z M 292.1 445.1 " fill="#FEFFFE"></path><path d="M 0.0 0.0 L 58.1 0.0 L 59.1 0.0 " fill="none" stroke="#FEFFFE" stroke-width="2.00" transform="matrix(-0.47, -0.88, -0.88, 0.47, 417.9, 319.1)"></path><path d="M 386.1 270.2 L 385.8 259.5 L 394.6 265.6 Z M 386.1 270.2 " fill="#FEFFFE"></path><path d="M 0.0 0.0 L 53.3 0.0 L 54.3 0.0 " fill="none" stroke="#FEFFFE" stroke-width="2.00" transform="matrix(0.31, -0.95, -0.95, -0.31, 413.0, 494.1)"></path><path d="M 425.0 442.0 L 432.5 434.3 L 434.1 445.0 Z M 425.0 442.0 " fill="#FEFFFE"></path><g><clipPath id="clip0x6080006a83a0"><path d="M 608.0 234.0 L 771.0 234.0 L 771.0 86.0 L 608.0 86.0 Z M 608.0 234.0 "></path></clipPath><g clip-path="url(#clip0x6080006a83a0)"><path d="M 608.0 86.0 L 771.0 86.0 L 771.0 234.0 L 608.0 234.0 Z M 608.0 86.0 " fill="url(#D3B7153E-4793-4ED8-AE12-3A2847BA9BA7)"></path></g></g><g><clipPath id="clip0x6100006a78c0"><path d="M 605.5 85.8 L 773.0 85.8 L 773.0 234.0 L 605.5 234.0 Z M 605.5 85.8 "></path></clipPath><g clip-path="url(#clip0x6100006a78c0)"><text xml:space="preserve" font-family="Helvetica-Light,Helvetica" font-size="26.0" fill="#FEFFFF" transform="matrix(1.00, 0.00, -0.00, -1.00, 664.7, 150.0)">A</text><text xml:space="preserve" font-family="Helvetica-Light,Helvetica" font-size="26.0" fill="#FEFFFF" transform="matrix(1.00, 0.00, -0.00, -1.00, 682.0, 150.0)">p</text><text xml:space="preserve" font-family="Helvetica-Light,Helvetica" font-size="26.0" fill="#FEFFFF" transform="matrix(1.00, 0.00, -0.00, -1.00, 697.9, 150.0)">p</text></g></g><path d="M 0.0 0.0 L 91.3 0.0 L 92.3 0.0 " fill="none" stroke="#FEFFFE" stroke-width="2.00" transform="matrix(0.71, -0.71, -0.71, -0.71, 286.7, 330.8)"></path><path d="M 347.9 262.8 L 358.0 259.5 L 354.7 269.6 Z M 347.9 262.8 " fill="#FEFFFE"></path><path d="M -0.2 0.4 L 118.4 0.4 L 119.8 0.4 " fill="none" stroke="#FEFFFE" stroke-width="2.00" transform="matrix(1.00, 0.00, 0.00, -1.00, 461.2, 186.4)"></path><path d="M 580.0 181.2 L 589.6 186.0 L 580.0 190.8 Z M 580.0 181.2 " fill="#FEFFFE"></path><g><clipPath id="clip0x6100006a9240"><path d="M 686.0 513.3 L 767.0 513.3 L 767.0 580.7 L 686.0 580.7 Z M 686.0 513.3 "></path></clipPath><g clip-path="url(#clip0x6100006a9240)"><image xlink:href="../../C60DC9A6-F9E4-4A91-A683-2AD31B80DC68/assets/0B2429EF28B7D90C29896AD4762DE8DC.png" width="300.00" height="250.00" transform="matrix(0.27, 0.00, -0.00, -0.27, 686.0, 581.0)"></image></g></g><g><clipPath id="clip0x6000008b0200"><path d="M 558.1 339.9 L 639.1 339.9 L 639.1 407.4 L 558.1 407.4 Z M 558.1 339.9 "></path></clipPath><g clip-path="url(#clip0x6000008b0200)"><image xlink:href="../../C60DC9A6-F9E4-4A91-A683-2AD31B80DC68/assets/0B2429EF28B7D90C29896AD4762DE8DC.png" width="300.00" height="250.00" transform="matrix(0.27, 0.00, -0.00, -0.27, 558.0, 407.0)"></image></g></g><g><clipPath id="clip0x6000008b0680"><path d="M 787.1 339.9 L 868.1 339.9 L 868.1 407.4 L 787.1 407.4 Z M 787.1 339.9 "></path></clipPath><g clip-path="url(#clip0x6000008b0680)"><image xlink:href="../../C60DC9A6-F9E4-4A91-A683-2AD31B80DC68/assets/0B2429EF28B7D90C29896AD4762DE8DC.png" width="300.00" height="250.00" transform="matrix(0.27, 0.00, -0.00, -0.27, 787.0, 407.0)"></image></g></g><g><clipPath id="clip0x6000008ae9a0"><path d="M 604.7 344.1 L 705.4 243.4 L 697.2 235.2 L 596.5 335.9 Z M 604.7 344.1 "></path></clipPath><g clip-path="url(#clip0x6000008ae9a0)"><path d="M 0.0 0.0 L 130.8 0.0 L 131.8 0.0 " fill="none" stroke="#FEFFFE" stroke-width="2.00" transform="matrix(0.71, -0.71, -0.71, -0.71, 601.3, 339.3)"></path><path d="M 690.4 243.4 L 700.6 240.0 L 697.2 250.2 Z M 690.4 243.4 " fill="#FEFFFE"></path></g></g><g><clipPath id="clip0x6000008ae460"><path d="M 814.7 325.9 L 733.0 244.2 L 724.8 252.4 L 806.5 334.1 Z M 814.7 325.9 "></path></clipPath><g clip-path="url(#clip0x6000008ae460)"><path d="M 0.0 0.0 L 103.9 0.0 L 104.9 0.0 " fill="none" stroke="#FEFFFE" stroke-width="2.00" transform="matrix(-0.71, -0.71, -0.71, 0.71, 809.9, 329.3)"></path><path d="M 733.0 259.2 L 729.6 249.0 L 739.8 252.4 Z M 733.0 259.2 " fill="#FEFFFE"></path></g></g><g><clipPath id="clip0x6000008ae280"><path d="M 723.0 502.2 L 723.0 265.8 L 711.4 265.8 L 711.4 502.2 Z M 723.0 502.2 "></path></clipPath><g clip-path="url(#clip0x6000008ae280)"><path d="M 0.2 0.2 L 224.9 0.2 L 226.2 0.2 " fill="none" stroke="#FEFFFE" stroke-width="2.00" transform="matrix(0.00, -1.00, -1.00, 0.00, 717.2, 501.2)"></path><path d="M 712.2 276.0 L 717.0 266.4 L 721.8 276.0 Z M 712.2 276.0 " fill="#FEFFFE"></path></g></g></g></svg>